<?xml version="1.0" encoding="UTF-8" standalone="no"?>
<!-- Created with Inkscape (http://www.inkscape.org/) -->

<svg
   xmlns:dc="http://purl.org/dc/elements/1.1/"
   xmlns:cc="http://creativecommons.org/ns#"
   xmlns:rdf="http://www.w3.org/1999/02/22-rdf-syntax-ns#"
   xmlns:svg="http://www.w3.org/2000/svg"
   xmlns="http://www.w3.org/2000/svg"
   xmlns:sodipodi="http://sodipodi.sourceforge.net/DTD/sodipodi-0.dtd"
   xmlns:inkscape="http://www.inkscape.org/namespaces/inkscape"
   width="210mm"
   height="297mm"
   viewBox="0 0 744.09448819 1052.3622047"
   id="svg4174"
   version="1.1"
   inkscape:version="0.91 r13725"
   sodipodi:docname="Quadropod Base.svg">
  <defs
     id="defs4176" />
  <sodipodi:namedview
     id="base"
     pagecolor="#ffffff"
     bordercolor="#666666"
     borderopacity="1.0"
     inkscape:pageopacity="0.0"
     inkscape:pageshadow="2"
     inkscape:zoom="0.7"
     inkscape:cx="174.85441"
     inkscape:cy="760.38063"
     inkscape:document-units="px"
     inkscape:current-layer="layer1"
     showgrid="false"
     inkscape:window-width="1366"
     inkscape:window-height="705"
     inkscape:window-x="-8"
     inkscape:window-y="-8"
     inkscape:window-maximized="1" />
  <metadata
     id="metadata4179">
    <rdf:RDF>
      <cc:Work
         rdf:about="">
        <dc:format>image/svg+xml</dc:format>
        <dc:type
           rdf:resource="http://purl.org/dc/dcmitype/StillImage" />
        <dc:title></dc:title>
      </cc:Work>
    </rdf:RDF>
  </metadata>
  <g
     inkscape:label="Layer 1"
     inkscape:groupmode="layer"
     id="layer1">
    <path
       style="fill:none;fill-rule:evenodd;stroke:#ff0000;stroke-width:1.025;stroke-linecap:butt;stroke-linejoin:miter;stroke-opacity:1;stroke-miterlimit:4;stroke-dasharray:none"
       d="m 177.16535,166.53543 c 31.25144,75.44764 31.25144,314.31614 0,389.76378 -31.25144,75.44764 -70.86614,37.45952 -70.86614,70.86614 0,33.40662 37.45952,70.86615 70.86614,70.86615 33.40662,0 28.1544,-53.17436 70.86615,-70.86615 42.71175,-17.69179 134.4536,-17.69179 177.16535,0 42.71175,17.69179 37.45952,70.86615 70.86614,70.86615 33.40662,0 70.86614,-37.45953 70.86614,-70.86615 0,-33.40662 -39.6147,4.5815 -70.86614,-70.86614 -31.25144,-75.44764 -31.25144,-314.31614 0,-389.76378 31.25144,-75.447642 70.86614,-37.45952 70.86614,-70.866139 0,-33.406619 -37.45952,-70.866141 -70.86614,-70.866141 -33.40662,0 -28.15439,53.174354 -70.86614,70.866141 -42.71175,17.691789 -134.4536,17.691789 -177.16535,0 -42.71175,-17.691786 -37.45953,-70.866142 -70.86615,-70.866141 -33.40662,1e-6 -70.86614,37.459522 -70.86614,70.866141 0,33.406619 39.6147,-4.581503 70.86614,70.866139 z"
       id="path4728"
       inkscape:connector-curvature="0"
       sodipodi:nodetypes="zzzzzzzzzzzzzzzzz" />
  </g>
</svg>
