<?xml version="1.0" encoding="UTF-8" standalone="no"?>
<!-- Created with Inkscape (http://www.inkscape.org/) -->

<svg
   xmlns:dc="http://purl.org/dc/elements/1.1/"
   xmlns:cc="http://creativecommons.org/ns#"
   xmlns:rdf="http://www.w3.org/1999/02/22-rdf-syntax-ns#"
   xmlns:svg="http://www.w3.org/2000/svg"
   xmlns="http://www.w3.org/2000/svg"
   xmlns:sodipodi="http://sodipodi.sourceforge.net/DTD/sodipodi-0.dtd"
   xmlns:inkscape="http://www.inkscape.org/namespaces/inkscape"
   width="210mm"
   height="297mm"
   viewBox="0 0 744.09448819 1052.3622047"
   id="svg2"
   version="1.1"
   inkscape:version="0.91 r13725"
   sodipodi:docname="Quadropod.svg">
  <defs
     id="defs4">
    <filter
       style="color-interpolation-filters:sRGB"
       id="filter4385"
       inkscape:label="filter1" />
  </defs>
  <sodipodi:namedview
     id="base"
     pagecolor="#ffffff"
     bordercolor="#666666"
     borderopacity="1.0"
     inkscape:pageopacity="0.0"
     inkscape:pageshadow="2"
     inkscape:zoom="2"
     inkscape:cx="382.3346"
     inkscape:cy="571.19132"
     inkscape:document-units="px"
     inkscape:current-layer="layer1"
     showgrid="false"
     inkscape:window-width="1366"
     inkscape:window-height="705"
     inkscape:window-x="-8"
     inkscape:window-y="-8"
     inkscape:window-maximized="1"
     showguides="false" />
  <metadata
     id="metadata7">
    <rdf:RDF>
      <cc:Work
         rdf:about="">
        <dc:format>image/svg+xml</dc:format>
        <dc:type
           rdf:resource="http://purl.org/dc/dcmitype/StillImage" />
        <dc:title />
      </cc:Work>
    </rdf:RDF>
  </metadata>
  <g
     inkscape:label="Layer 1"
     inkscape:groupmode="layer"
     id="layer1">
    <path
       style="fill:none;fill-rule:evenodd;stroke:#ff0000;stroke-width:1.02499998;stroke-linecap:butt;stroke-linejoin:miter;stroke-miterlimit:4;stroke-dasharray:none;stroke-opacity:1"
       d="m 159.52439,31.976374 c -11.33085,0.02692 -24.15158,1.221722 -38.54492,4.123047 -2.39116,1.740519 -4.75823,-0.0088 -7.0957,1.84375 -2.33746,1.85255 -4.64636,3.764154 -6.92383,5.740234 -2.27748,1.97607 -4.52319,4.015863 -6.73438,6.126953 -2.211173,2.1111 -3.67194,-9.277141 -5.81054,-7.019531 -2.1386,2.2576 -4.953962,18.162515 -7.013672,20.578125 -2.05971,2.41561 -4.078204,4.912937 -6.052734,7.498047 -1.97453,2.58511 -6.763445,-12.598132 -8.646485,-9.832032 -1.88305,2.76611 -0.861214,23.480863 -2.646484,26.439454 -1.78527,2.95859 -3.519982,6.017117 -5.201172,9.179687 -1.68119,3.162575 -7.976055,-11.231556 -9.546875,-7.853516 -1.57081,3.37804 1.583046,24.527798 0.128906,28.132808 -1.45414,3.60501 -2.848517,7.32645 -4.179687,11.16992 -1.33117,3.84347 -10.716069,-9.81804 -11.917969,-5.72461 -1.20189,4.09342 5.779211,25.94201 4.712891,30.29688 -1.06632,4.35488 -2.063832,8.84289 -2.988282,13.4707 -0.92446,4.62781 -8.846756,-9.29115 -9.623046,-4.3789 -0.60146,3.80597 5.913456,26.38434 5.404296,30.36718 -0.50917,3.98284 -0.972788,8.05566 -1.386718,12.22071 -0.41394,4.16506 -11.889298,-8.7491 -12.205078,-4.39649 -0.315771,4.35262 10.529133,25.97205 10.314453,30.51758 -0.21468,4.54552 -0.377612,9.18981 -0.488282,13.93359 -0.11071,4.74378 -12.290921,-5.56456 -12.294921,-0.61718 -0.0037,4.94737 12.16923,25.15032 12.27539,30.30664 0.10615,5.15632 0.267368,10.41845 0.486328,15.78906 0.21896,5.37061 -14.656955,-9.35196 -14.322265,-3.76172 0.33469,5.59024 15.880624,31.49337 16.333984,37.30859 0.45336,5.81523 0.966056,11.74352 1.541016,17.78907 0.57495,6.04555 -15.959246,-12.03513 -15.259766,-5.75391 0.69948,6.28122 18.632054,36.92503 19.458984,43.44727 0.82693,6.52224 1.718472,13.16693 2.675782,19.93554 0.95731,6.7686 -19.231255,-11.59062 -18.140625,-4.57031 1.09062,7.02031 23.46064,39.4199 24.6875,46.69727 0.33539,2.34812 1.358805,9.58972 2.703125,19.13281 1.34431,9.5432 3.010055,21.3874 4.634765,32.9375 1.62472,11.5502 3.208156,22.80678 4.384766,31.17578 1.17662,8.3691 1.947266,13.85156 1.947266,13.85156 l 10.710937,-0.0117 2.388672,-98.96289 c 0,0 0.132832,-19.65263 35.13281,-152.32617 15.43955,-58.52632 67.73047,-68.60742 67.73047,-68.60742 l 49.60547,0 0,-34.01649 -49.60547,-10e-4 0,-17.71604 -10.63047,0 0,-35.43307 10.63047,0 0,-49.6063 49.60547,0 0,-27.715368 c 0,0 -21.134,-21.821712 -70.23438,-21.705078 z"
       id="path4136"
       inkscape:connector-curvature="0"
       sodipodi:nodetypes="ccssssssssssssssssssssscssssssssscssscccscccccccccccsc" />
    <path
       style="fill:none;fill-rule:evenodd;stroke:#ff0000;stroke-width:1.025;stroke-linecap:butt;stroke-linejoin:miter;stroke-miterlimit:4;stroke-dasharray:none;stroke-opacity:1"
       d="m 144.89764,84.89985 0,110.94267 c 0,0 -26.31123,10.02084 -38.49369,32.15193 0,0 -8.34357,6.22065 -18.32659,40.00806 -14.33331,54.58385 -21.09162,59.94945 -27.16058,116.39254 0,0 -3.61742,-36.80738 -3.89638,-42.36009 1.09797,-70.1305 -12.14633,-241.26645 87.87724,-257.13511 z"
       id="path4136-0"
       inkscape:connector-curvature="0"
       sodipodi:nodetypes="ccccccc" />
    <circle
       style="fill:none;fill-opacity:1;stroke:#ff0000;stroke-width:1.025;stroke-miterlimit:4;stroke-dasharray:none;stroke-opacity:1"
       id="path4149-4"
       cx="204.07086"
       cy="196.55121"
       r="6.2197833" />
    <path
       style="fill:none;fill-opacity:1;stroke:#ff0000;stroke-width:1.02499998;stroke-miterlimit:4;stroke-dasharray:none;stroke-opacity:1"
       d="m 597.49509,296.79473 0,-248.0315 53.14961,0 0,248.0315 z"
       id="rect4174"
       inkscape:connector-curvature="0"
       sodipodi:nodetypes="ccccc" />
    <circle
       style="fill:none;fill-opacity:1;stroke:#ff0000;stroke-width:1.02499986;stroke-miterlimit:4;stroke-dasharray:none;stroke-opacity:1"
       id="path4177"
       cx="-264.38596"
       cy="624.23541"
       r="14.192225"
       transform="matrix(0,-1,1,0,0,0)" />
    <ellipse
       style="fill:none;fill-opacity:1;stroke:#ff0000;stroke-width:1.02499998;stroke-miterlimit:4;stroke-dasharray:none;stroke-opacity:1"
       id="path4177-5"
       cx="-75.528183"
       cy="624.23541"
       transform="matrix(0,-1,1,0,0,0)"
       rx="14.192388"
       ry="14.192225" />
    <path
       style="fill:none;fill-opacity:1;stroke:#ff0000;stroke-width:1.02499998;stroke-miterlimit:4;stroke-dasharray:none;stroke-opacity:1"
       d="m 237.81614,81.39685 71.92914,0 9.2e-4,49.6063 21.25892,0 0,35.43307 -21.25892,0 0,17.71654 -71.92914,0 0,-17.71654 -10.62992,0 0,-35.43307 10.62992,0 z"
       id="rect4172-5-9"
       inkscape:connector-curvature="0"
       sodipodi:nodetypes="ccccccccccccc" />
    <path
       style="fill:none;fill-opacity:1;stroke:#ff0000;stroke-width:1.02499998;stroke-miterlimit:4;stroke-dasharray:none;stroke-opacity:1"
       d="m 368.0403,119.37323 70.86614,0 -3e-4,63.77953 -70.86614,0 8e-5,-17.71654 10.62997,0 4e-5,-35.43307 -10.62987,0 z"
       id="rect4172-5-9-4"
       inkscape:connector-curvature="0"
       sodipodi:nodetypes="ccccccccc" />
    <circle
       style="fill:none;fill-opacity:1;stroke:#ff0000;stroke-width:1.02499998;stroke-miterlimit:4;stroke-dasharray:none;stroke-opacity:1"
       id="path4149-4-6"
       cx="204.07129"
       cy="72.526924"
       r="6.2197833" />
    <path
       style="fill:none;fill-opacity:1;stroke:#ff0000;stroke-width:1.02499998;stroke-miterlimit:4;stroke-dasharray:none;stroke-opacity:1"
       d="m 454.03268,80.39685 49.25212,0 -3e-4,102.75591 -49.25086,0 8e-5,-17.71654 10.62997,0 4e-5,-35.43307 -10.62987,0 z"
       id="rect4172-5-9-4-6"
       inkscape:connector-curvature="0"
       sodipodi:nodetypes="ccccccccc" />
    <path
       style="fill:none;fill-opacity:1;stroke:#ff0000;stroke-width:1.02499998;stroke-miterlimit:4;stroke-dasharray:none;stroke-opacity:1"
       d="m 519.42519,297.37795 0,-248.031495 53.14962,0 0,248.031495 z"
       id="rect4174-9"
       inkscape:connector-curvature="0"
       sodipodi:nodetypes="ccccc" />
    <path
       style="fill:none;fill-opacity:1;fill-rule:evenodd;stroke:#ff0000;stroke-width:1.02499998;stroke-linecap:butt;stroke-linejoin:miter;stroke-miterlimit:4;stroke-dasharray:none;stroke-opacity:1"
       d="m 364.96063,481.88976 0,-10.62992 10.62992,0 0,-10.62992 -10.62992,0 0,-46.06299 10.62992,0 0,-10.62992 -10.62992,0 0,-10.62992 35.43307,0 0,10.62992 35.43307,0 0,-10.62992 61.29921,0 0,10.62992 -10.62992,0 0,10.62992 10.62992,0 0,46.06299 -10.62992,0 0,10.62992 10.62992,0 0,10.62992 -61.29921,0 0,-10.62992 -35.43307,0 0,10.62992 z"
       id="path4157"
       inkscape:connector-curvature="0"
       sodipodi:nodetypes="ccccccccccccccccccccccccccccc" />
    <path
       style="fill:none;fill-rule:evenodd;stroke:#ff0000;stroke-width:1.02499998;stroke-linecap:butt;stroke-linejoin:miter;stroke-miterlimit:4;stroke-dasharray:none;stroke-opacity:1"
       d="m 389.76378,414.56693 0,46.06299 82.55905,0 0,-46.06299 z"
       id="path4159"
       inkscape:connector-curvature="0"
       sodipodi:nodetypes="ccccc" />
    <path
       style="fill:none;fill-rule:evenodd;stroke:#ff0000;stroke-width:1.02499998;stroke-linecap:butt;stroke-linejoin:miter;stroke-miterlimit:4;stroke-dasharray:none;stroke-opacity:1"
       d="m 364.96063,485.43307 10.62992,0 0,10.62992 110.90551,0 0,-10.62992 10.62992,0 0,99.92126 -10.62992,0 0,-21.25984 -50.66929,0 0,21.25984 -35.43307,0 0,-21.25984 -24.80315,0 0,21.25984 -10.62992,0 z"
       id="path4161"
       inkscape:connector-curvature="0"
       sodipodi:nodetypes="ccccccccccccccccc" />
  </g>
</svg>
