<?xml version="1.0" encoding="UTF-8" standalone="no"?>
<!-- Created with Inkscape (http://www.inkscape.org/) -->

<svg
   xmlns:dc="http://purl.org/dc/elements/1.1/"
   xmlns:cc="http://creativecommons.org/ns#"
   xmlns:rdf="http://www.w3.org/1999/02/22-rdf-syntax-ns#"
   xmlns:svg="http://www.w3.org/2000/svg"
   xmlns="http://www.w3.org/2000/svg"
   xmlns:sodipodi="http://sodipodi.sourceforge.net/DTD/sodipodi-0.dtd"
   xmlns:inkscape="http://www.inkscape.org/namespaces/inkscape"
   width="420mm"
   height="297mm"
   viewBox="0 0 1488.189 1052.3622"
   id="svg3336"
   version="1.1"
   inkscape:version="0.91 r13725"
   sodipodi:docname="robot body wood hairline.svg">
  <defs
     id="defs3338">
    <inkscape:path-effect
       effect="spiro"
       id="path-effect3679"
       is_visible="true" />
    <inkscape:path-effect
       effect="spiro"
       id="path-effect3675"
       is_visible="true" />
  </defs>
  <sodipodi:namedview
     id="base"
     pagecolor="#ffffff"
     bordercolor="#666666"
     borderopacity="1.0"
     inkscape:pageopacity="0.0"
     inkscape:pageshadow="2"
     inkscape:zoom="0.25182729"
     inkscape:cx="859.93597"
     inkscape:cy="1003.4659"
     inkscape:document-units="mm"
     inkscape:current-layer="layer2"
     showgrid="true"
     inkscape:window-width="1366"
     inkscape:window-height="705"
     inkscape:window-x="-8"
     inkscape:window-y="-8"
     inkscape:window-maximized="1"
     showguides="false">
    <inkscape:grid
       type="xygrid"
       id="grid3344"
       units="mm"
       spacingx="3.5433071"
       spacingy="3.5433072"
       dotted="false" />
  </sodipodi:namedview>
  <metadata
     id="metadata3341">
    <rdf:RDF>
      <cc:Work
         rdf:about="">
        <dc:format>image/svg+xml</dc:format>
        <dc:type
           rdf:resource="http://purl.org/dc/dcmitype/StillImage" />
        <dc:title></dc:title>
      </cc:Work>
    </rdf:RDF>
  </metadata>
  <g
     inkscape:label="Layer 1"
     inkscape:groupmode="layer"
     id="layer1"
     transform="translate(0,4.8346456e-5)">
    <path
       style="fill:none;fill-opacity:1;stroke:#000000;stroke-width:8.85826778;stroke-miterlimit:4;stroke-dasharray:none;stroke-opacity:1"
       d="m 943.31534,94.298059 c 34.0371,0 61.62956,27.970801 61.62956,62.007901 0,34.037 -27.59246,62.00785 -61.62956,62.00785 -34.037,0 -62.0078,-27.97085 -62.0078,-62.00785 0,-34.0371 27.9708,-62.007901 62.0078,-62.007901 z"
       id="path4797"
       inkscape:connector-curvature="0"
       sodipodi:nodetypes="sssss" />
  </g>
  <g
     inkscape:groupmode="layer"
     id="layer2"
     inkscape:label="Cutting"
     transform="translate(0,-435.82677)">
    <path
       style="fill:none;stroke:#ff0000;stroke-width:3.56811023;stroke-miterlimit:4.10060596;stroke-dasharray:none;stroke-opacity:1"
       d="m 20.488991,1479.6796 35.43271,5e-4 3.1e-4,-10.8071 35.43307,-5e-4 -3e-4,10.8071 35.433069,5e-4 3e-4,-10.8071 35.43307,5e-4 -3e-4,10.8071 35.43307,-5e-4 3e-4,-10.8071 35.43307,0 -3e-4,10.8071 35.43332,5e-4 2e-5,-46.4173 -10.80708,-5e-4 6e-5,-35.4331 10.80853,5e-4 8e-5,-35.4331 10.80563,-5e-4 -1.9e-4,-35.4331 -10.80606,5e-4 -2.3e-4,-248.0315 10.80639,-5e-4 10e-6,-35.433 -10.80648,4e-4 -6.8e-4,-46.41727 -35.43332,-4.9e-4 -4.1e-4,10.80706 -35.43307,0 4.1e-4,-10.80706 -35.43307,4.9e-4 -4.1e-4,10.80707 -35.43307,-5e-4 4.1e-4,-10.80706 -35.433069,-4.7e-4 -4.1e-4,10.80703 -35.43307,5e-4 4e-4,-10.80706 -35.43271,-4.7e-4 6.8e-4,46.41733 -10.8078431,5e-4 2e-5,35.433 10.8080331,-4e-4 2.3e-4,248.0315 -10.8081631,4e-4 -1.9e-4,35.4331 10.8072231,-4e-4 -9e-5,35.433 10.80717,0 -6e-5,35.4331 -10.80604,0 z"
       id="rect3551"
       inkscape:connector-curvature="0"
       sodipodi:nodetypes="ccccccccccccccccccccccccccccccccccccccccccccccccccccc" />
    <path
       style="fill:none;stroke:#ff0000;stroke-width:3.56811023;stroke-miterlimit:4.10060596;stroke-dasharray:none;stroke-opacity:1"
       d="m 296.53008,1455.6795 35.25647,4e-4 -7e-4,21.6155 35.78741,0 6.9e-4,-21.6135 35.07804,-10e-4 -6.9e-4,21.6135 35.7871,10e-4 7e-4,-21.6159 35.07974,2e-4 -7e-4,21.6159 35.7874,10e-5 7e-4,-21.616 35.25508,-2e-4 0,-527.95218 -35.25508,2e-4 -7e-4,-21.6142 -35.7874,10e-5 7e-4,21.6141 c -11.81099,-4e-4 -23.26675,-2e-4 -35.07774,-2e-4 l -7e-4,-21.6142 -35.78771,9e-4 7e-4,21.6141 -35.07944,-8e-4 -7e-4,-21.6142 -35.7874,5e-4 7e-4,21.6142 -35.25647,-5e-4 z m 44.49661,-236.486 0,-55.9883 c 0,-2.9445 2.37,-5.3145 5.31453,-5.3145 l 3.5429,0 c 2.9445,0 5.31641,2.37 5.31641,5.3145 l 0,55.9883 c 0,2.9445 -2.37191,5.3144 -5.31641,5.3144 l -3.5429,0 c -2.94453,0 -5.31453,-2.3699 -5.31453,-5.3144 z m 78.80537,16.975 0,-96.0236 51.02715,0 0,96.0236 z m 21.96996,10.452 c 3e-4,-2.9349 2.3794,-5.3141 5.3144,-5.3144 2.9357,-8e-4 5.3161,2.3787 5.3164,5.3144 8e-4,2.9365 -2.3799,5.3173 -5.3164,5.3164 -2.9357,-3e-4 -5.3152,-2.3806 -5.3144,-5.3164 z m 0,-116.9296 c 3e-4,-2.935 2.3794,-5.3142 5.3144,-5.3145 2.9357,-8e-4 5.3161,2.3787 5.3164,5.3145 -3e-4,2.9357 -2.3807,5.3152 -5.3164,5.3144 -2.935,-3e-4 -5.3141,-2.3795 -5.3144,-5.3144 z"
       id="rect3377-1"
       inkscape:connector-curvature="0"
       sodipodi:nodetypes="cccccccccccccccccccccccccccccsssssssssccccccccccccccc" />
    <path
       style="fill:none;stroke:#ff0000;stroke-width:3.56811023;stroke-miterlimit:4.10060596;stroke-dasharray:none;stroke-opacity:1"
       d="m 564.55557,1465.5457 34.98956,0 0,10.9844 35.87558,-0.3555 0,-10.6289 34.98769,0 0,10.6289 35.87752,0 0,-10.6289 34.9893,0 0,10.6289 35.87609,0 0,-10.6289 35.43348,0 7.9e-4,-35.7886 -10.62633,0 0,-34.7244 10.62633,0 2.2e-4,-408.18919 -10.62633,0 0,-34.72423 10.62633,0 -6e-5,-35.78557 -34.9902,0 0,-10.63081 -36.31937,0 0,10.63081 c -11.81099,-4e-4 -22.73473,0 -34.546,0 l 0,-10.63081 -36.32082,0 0,10.63081 -34.54629,0 0,-10.63081 -36.31888,0 0,10.63081 -34.98956,0 -2.2e-4,35.78557 10.62992,0 0,34.72423 -10.62992,0 0.004,408.18869 10.6261,3e-4 0,34.7244 -10.62965,2e-4 z m 177.16421,-194.8804 c 0,-17.7165 9.80864,-15.7777 17.71654,-15.7777 7.9079,0 17.71655,-1.9388 17.71654,15.7777 l 0,106.2993 c 10e-6,17.7165 -9.40121,17.5621 -17.71654,17.5621 -8.31533,0 -17.71654,0.1544 -17.71654,-17.5621 z"
       id="rect3377-1-7"
       inkscape:connector-curvature="0"
       sodipodi:nodetypes="ccccccccccccccccccccccccccccccccccccccccccccczzzzzzz" />
    <path
       inkscape:connector-curvature="0"
       id="rect6713"
       d="m 115.58817,1152.7116 -1.2601,-1.2601 c -0.5544,-0.5544 -0.074,-1.9276 1.0774,-3.0789 l 59.49995,-59.4998 c 1.1513,-1.1513 2.52451,-1.6318 3.07891,-1.0774 l 1.2601,1.2602 c 0.5545,0.5544 0.074,1.9276 -1.0773,3.0789 l -59.49996,59.4997 c -1.1513,1.1513 -2.5245,1.6319 -3.079,1.0774 z"
       style="fill:none;fill-opacity:1;stroke:#ff0000;stroke-width:3.56811023;stroke-miterlimit:4.10060596;stroke-dasharray:none;stroke-opacity:1"
       sodipodi:nodetypes="cscsscssc" />
    <path
       inkscape:connector-curvature="0"
       id="rect6713-1"
       d="m 124.76328,1158.2265 -1.2645,-1.2644 c -0.5564,-0.5564 -0.1307,-1.8778 0.9544,-2.9629 l 56.07885,-56.0787 c 1.0851,-1.0851 2.4065,-1.5108 2.9628,-0.9544 l 1.2645,1.2645 c 0.5564,0.5563 0.1307,1.8777 -0.9544,2.9628 l -56.07885,56.0787 c -1.0851,1.0851 -2.4065,1.5108 -2.9628,0.9544 z"
       style="fill:none;fill-opacity:1;stroke:#ff0000;stroke-width:3.56811023;stroke-miterlimit:4.10060596;stroke-dasharray:none;stroke-opacity:1"
       sodipodi:nodetypes="ccssccssc" />
    <path
       inkscape:connector-curvature="0"
       id="rect6713-2"
       d="m 135.77019,1161.9144 -1.27371,-1.2736 c -0.5604,-0.5604 -0.2445,-1.7785 0.7082,-2.7312 l 49.23765,-49.2375 c 0.9527,-0.9528 2.1709,-1.2686 2.7312,-0.7083 l 1.2737,1.2737 c 0.5604,0.5604 0.2445,1.7785 -0.7082,2.7312 l -49.23764,49.2375 c -0.9527,0.9527 -2.1709,1.2686 -2.7312,0.7082 z"
       style="fill:none;fill-opacity:1;stroke:#ff0000;stroke-width:3.56811023;stroke-miterlimit:4.10060596;stroke-dasharray:none;stroke-opacity:1"
       sodipodi:nodetypes="cssscsssc" />
    <path
       inkscape:connector-curvature="0"
       id="rect6713-2-1"
       d="m 146.77651,1165.6036 -1.2836,-1.2836 c -0.5647,-0.5647 -0.3589,-1.6798 0.4615,-2.5002 l 42.39822,-42.3981 c 0.8204,-0.8204 1.93551,-1.0262 2.50021,-0.4615 l 1.2836,1.2836 c 0.5647,0.5647 0.3589,1.6798 -0.4615,2.5002 l -42.39823,42.3981 c -0.8204,0.8204 -1.9355,1.0262 -2.5002,0.4615 z"
       style="fill:none;fill-opacity:1;stroke:#ff0000;stroke-width:3.56811023;stroke-miterlimit:4.10060596;stroke-dasharray:none;stroke-opacity:1"
       sodipodi:nodetypes="ccssccssc" />
    <path
       inkscape:connector-curvature="0"
       id="rect6713-2-1-6"
       d="m 159.61322,1167.4692 -1.3003,-1.3002 c -0.5721,-0.5721 -0.5319,-1.5334 0.09,-2.1553 l 32.14342,-32.1435 c 0.622,-0.6219 1.5833,-0.6621 2.1553,-0.09 l 1.3003,1.3003 c 0.572,0.572 0.5319,1.5333 -0.09,2.1553 l -32.14352,32.1434 c -0.6219,0.622 -1.5832,0.6622 -2.1552,0.09 z"
       style="fill:none;fill-opacity:1;stroke:#ff0000;stroke-width:3.56811023;stroke-miterlimit:4.10060596;stroke-dasharray:none;stroke-opacity:1"
       sodipodi:nodetypes="csccccccc" />
    <path
       inkscape:connector-curvature="0"
       id="rect6713-1-9"
       d="m 168.80932,1082.2805 1.2644,1.2645 c 0.5564,0.5563 0.1307,1.8778 -0.9544,2.9629 l -56.07885,56.0786 c -1.085,1.0851 -2.40651,1.5108 -2.96281,0.9544 l -1.2645,-1.2644 c -0.5563,-0.5564 -0.1307,-1.8778 0.9544,-2.9629 l 56.07885,-56.0787 c 1.0851,-1.0851 2.40651,-1.5107 2.96291,-0.9544 z"
       style="fill:none;fill-opacity:1;stroke:#ff0000;stroke-width:3.56811023;stroke-miterlimit:4.10060596;stroke-dasharray:none;stroke-opacity:1"
       sodipodi:nodetypes="ccscccssc" />
    <path
       inkscape:connector-curvature="0"
       id="rect6713-2-6"
       d="m 157.80232,1078.5926 1.2737,1.2737 c 0.5603,0.5604 0.2445,1.7785 -0.7082,2.7312 l -49.23766,49.2375 c -0.9527,0.9527 -2.1709,1.2686 -2.7312,0.7082 l -1.2737,-1.2737 c -0.5604,-0.5603 -0.2445,-1.7784 0.7082,-2.7312 l 49.23765,-49.2375 c 0.9527,-0.9527 2.1708,-1.2685 2.73121,-0.7082 z"
       style="fill:none;fill-opacity:1;stroke:#ff0000;stroke-width:3.56811023;stroke-miterlimit:4.10060596;stroke-dasharray:none;stroke-opacity:1"
       sodipodi:nodetypes="sccscsscs" />
    <path
       inkscape:connector-curvature="0"
       id="rect6713-2-1-5"
       d="m 146.79601,1074.9035 1.2835,1.2835 c 0.5648,0.5648 0.359,1.6799 -0.4614,2.5002 l -42.39825,42.3982 c -0.8204,0.8203 -1.9355,1.0262 -2.5002,0.4614 l -1.2836,-1.2835 c -0.5647,-0.5648 -0.3589,-1.6799 0.4615,-2.5002 l 42.39824,-42.3982 c 0.82031,-0.8203 1.93541,-1.0262 2.50021,-0.4614 z"
       style="fill:none;fill-opacity:1;stroke:#ff0000;stroke-width:3.56811023;stroke-miterlimit:4.10060596;stroke-dasharray:none;stroke-opacity:1"
       sodipodi:nodetypes="ccssccscc" />
    <path
       inkscape:connector-curvature="0"
       id="rect6713-2-1-6-7"
       d="m 133.95928,1073.0379 1.30031,1.3002 c 0.572,0.5721 0.5319,1.5333 -0.09,2.1553 l -32.14352,32.1434 c -0.6219,0.622 -1.5832,0.6621 -2.1553,0.09 l -1.300199,-1.3002 c -0.5721,-0.5721 -0.5319,-1.5333 0.09,-2.1553 l 32.143419,-32.1434 c 0.622,-0.622 1.5833,-0.6622 2.15529,-0.09 z"
       style="fill:none;fill-opacity:1;stroke:#ff0000;stroke-width:3.56811023;stroke-miterlimit:4.10060596;stroke-dasharray:none;stroke-opacity:1"
       sodipodi:nodetypes="ccccccccc" />
    <path
       style="fill:none;fill-rule:evenodd;stroke:#ff0000;stroke-width:3.56811023;stroke-linecap:butt;stroke-linejoin:miter;stroke-miterlimit:4.10060596;stroke-dasharray:none;stroke-opacity:1"
       d="m 582.2948,525.53612 2.6e-4,35.43367 10.63045,-10e-4 -8e-4,35.43368 -10.98319,0 -70.51233,-70.86735 0,-10.63 35.43412,0 0,10.63 35.43254,10e-4"
       id="path6495"
       inkscape:connector-curvature="0"
       sodipodi:nodetypes="cccccccccc" />
    <path
       style="fill:none;stroke:#ff0000;stroke-width:3.56811023;stroke-miterlimit:4.10060596;stroke-dasharray:none;stroke-opacity:1"
       d="m 831.79891,1481.2022 35.87564,0 0,-10.6289 34.54824,0 0,10.6289 36.31699,0 0,-10.6289 34.54824,0 0,10.6289 36.31898,0 0,-10.6289 34.5462,0 0,10.6289 35.8769,0 2e-4,-549.39685 -35.8769,0 0,10.63086 -34.5462,0 0,-10.63086 c -11.81102,-4.5e-4 -24.50795,0 -36.31898,0 l 0,10.63086 -34.54824,0 0,-10.63086 -36.31699,0 0,10.63086 -34.54824,0 0,-10.63086 -35.87564,0 z m 62.00781,-184.4358 c -1.5e-4,-9.7848 7.93202,-17.7169 17.7168,-17.7168 l 88.58238,0 c 9.7848,-10e-5 17.717,7.932 17.7168,17.7168 2e-4,9.7848 -7.932,17.717 -17.7168,17.7168 l -88.58238,0 c -9.78477,2e-4 -17.71694,-7.932 -17.7168,-17.7168 z"
       id="rect3377"
       inkscape:connector-curvature="0"
       sodipodi:nodetypes="cccccccccccccccccccccccccccccccccccc" />
    <path
       style="fill:none;fill-opacity:1;stroke:#ff0000;stroke-width:3.56811023;stroke-miterlimit:4.10060596;stroke-dasharray:none;stroke-opacity:1"
       d="m 943.30014,534.56078 c 31.7962,0 57.22436,25.7757 57.22436,57.572 0,31.7962 -25.42816,57.5719 -57.22436,57.5719 -31.7963,0 -57.5722,-25.7754 -57.5722,-57.5717 0,-31.7962 25.7759,-57.5722 57.5722,-57.5722 z"
       id="path4799"
       inkscape:connector-curvature="0"
       sodipodi:nodetypes="sssss" />
    <path
       style="fill:none;fill-opacity:1;stroke:#ff0000;stroke-width:3.56811023;stroke-miterlimit:4.10060596;stroke-dasharray:none;stroke-opacity:1"
       d="m 863.40254,723.23661 159.45066,-0.002 -7e-4,-53.15206 -30.11826,5.4e-4 0,-10.6289 19.48836,0.003 -2e-4,-17.71501 10.6299,-0.003 0,-102.7544 -10.6299,0 0,-17.7167 -19.48836,0 -3e-4,-10.6299 -102.7549,-5e-4 3e-4,10.6299 -15.9457,0 0,17.7167 -10.6299,-3e-4 0,102.75441 10.6299,3.3e-4 2e-4,17.7181 15.9437,10e-6 0,10.62581 -26.5794,1.9e-4 z m 28.3535,-28.3457 c -7e-4,-3.91409 3.1718,-7.08755 7.0859,-7.08789 3.9141,4e-4 7.0867,3.17384 7.086,7.08789 -4e-4,3.91329 -3.1727,7.08554 -7.086,7.08594 -3.9133,-3.4e-4 -7.0855,-3.17262 -7.0859,-7.08594 z m 88.582,0 c -7e-4,-3.91405 3.1719,-7.08749 7.086,-7.08789 3.9148,-7.1e-4 7.0886,3.17306 7.0879,7.08789 -4e-4,3.91407 -3.1739,7.08665 -7.0879,7.08594 -3.9133,-4e-4 -7.0856,-3.17265 -7.086,-7.08594 z"
       id="rect4805"
       inkscape:connector-curvature="0"
       sodipodi:nodetypes="ccccccccccccccccccccccccccccccccccc" />
    <path
       style="fill:none;fill-opacity:1;stroke:#ff0000;stroke-width:3.56811023;stroke-miterlimit:4.10060596;stroke-dasharray:none;stroke-opacity:1"
       d="m 308.18306,537.3031 8e-4,-10.63009 102.75491,-2.8e-4 0.001,10.63009 30.1175,1.1e-4 0,-28.34665 -10.6298,0 0,-35.43318 10.6299,0 0,-28.3462 -30.1176,-3e-4 0,10.6299 -102.75691,3e-4 2e-4,-10.6299 -26.5735,0 0,28.3462 10.6299,0 0,35.43318 -10.6299,0 0,28.34665 z"
       id="rect4805-8"
       inkscape:connector-curvature="0"
       sodipodi:nodetypes="ccccccccccccccccccccc" />
    <path
       style="fill:none;fill-opacity:1;stroke:#ff0000;stroke-width:3.56811023;stroke-miterlimit:4.10060596;stroke-dasharray:none;stroke-opacity:1"
       d="m 1197.2373,1410.1716 0,-10.63 35.0788,0 0,10.63 17.8936,-4e-4 -5e-4,-35.6104 -10.6298,6e-4 0,-35.0788 10.6298,-5e-4 0,-35.7874 -10.6298,2e-4 0,-35.0787 10.6298,-3e-4 0,-35.7874 -10.6298,3e-4 0,-35.0788 10.6298,-2e-4 0,-35.7874 -10.6298,2e-4 0,-35.0787 10.6298,-3e-4 0,-202.14509 -10.2752,10e-4 3e-4,-35.43307 10.2754,-10e-4 10e-5,-28.34555 -14.1722,10e-4 -15.9459,-10e-4 0,10.62988 -102.756,4.2e-4 2e-4,-10.62996 -15.944,10e-4 -10.6299,0 -6e-4,28.34471 10.2748,0 10e-5,35.43307 -10.2748,0 0,202.14599 10.6289,-9e-4 0,35.0787 -10.6289,9e-4 0,35.7874 10.6289,-9e-4 0,35.0787 -10.6289,10e-4 0,35.7874 10.6289,-10e-4 0,35.0788 -10.6289,9e-4 0,35.7874 10.6289,-9e-4 0,35.0788 -10.6289,9e-4 5e-4,35.6103 35.6092,-9e-4 0,-10.6299 35.0787,0 0,10.6299 z"
       id="rect4805-8-7"
       inkscape:connector-curvature="0"
       sodipodi:nodetypes="ccccccccccccccccccccccccccccccccccccccccccccccccccccccccccc" />
    <path
       style="fill:none;stroke:#ff0000;stroke-width:3.56811023;stroke-miterlimit:4.10060596;stroke-dasharray:none;stroke-opacity:1"
       d="m 717.31034,510.90695 159.4484,-10e-4 -2e-4,-53.14715 -17.5394,0 2e-4,-10.9883 -35.7876,0 10e-5,10.9883 -35.0787,0 -1e-4,-10.9883 -35.7874,0 10e-5,10.9883 -35.2556,0 z m 28.353,-28.34555 c -7e-4,-3.9141 3.1719,-7.0875 7.086,-7.0879 3.914,4e-4 7.0866,3.1739 7.0859,7.0879 -4e-4,3.9134 -3.1727,7.0856 -7.0859,7.086 -3.9134,-3.4e-4 -7.0857,-3.1726 -7.086,-7.086 z m 88.5821,0 c -7e-4,-3.914 3.1718,-7.0875 7.0859,-7.0879 3.9148,-7e-4 7.0886,3.1731 7.0879,7.0879 -4e-4,3.9141 -3.1739,7.08671 -7.0879,7.086 -3.9133,-4e-4 -7.0856,-3.1726 -7.0859,-7.086 z"
       id="rect3377-8-5-7-0"
       inkscape:connector-curvature="0"
       sodipodi:nodetypes="ccccccccccccccccccccccc" />
    <path
       style="fill:none;fill-opacity:1;stroke:#ff0000;stroke-width:3.56811023;stroke-miterlimit:4.10060596;stroke-dasharray:none;stroke-opacity:1"
       d="m 1117.3358,953.08705 0,-10.63119 102.7559,-9.9e-4 0,10.63119 z"
       id="rect5444"
       inkscape:connector-curvature="0"
       sodipodi:nodetypes="ccccc" />
    <path
       inkscape:connector-curvature="0"
       style="fill:none;stroke:#ff0000;stroke-width:3.56811023;stroke-miterlimit:4.10060596;stroke-dasharray:none;stroke-opacity:1"
       d="m 650.2572,603.60765 3e-4,283.90793 60.2362,0 -10e-5,-35.2554 10.9845,-10e-4 0,-35.78741 -10.9845,10e-4 0,-35.07874 10.9845,-0.001 0,-35.78739 -10.9845,10e-4 0,-35.07875 10.9845,-10e-4 0,-35.7874 -10.9845,10e-4 0,-35.07874 10.9845,-10e-4 -2e-4,-35.60924 -71.2207,-10e-4 z"
       id="rect3377-82-4-4"
       sodipodi:nodetypes="cccccccccccccccccccc" />
    <path
       style="fill:none;fill-opacity:1;stroke:#ff0000;stroke-width:3.56811023;stroke-miterlimit:4.10060596;stroke-dasharray:none;stroke-opacity:1"
       d="m 860.79577,897.53063 15.943,-4e-5 8e-4,10.62992 102.755,4e-5 0.001,-10.62992 19.488,9.9e-4 -7e-4,-17.71672 10.62963,-9.8e-4 0,-102.75591 -10.62963,9.9e-4 0,-17.71869 -19.4885,-6.8e-4 7e-4,-10.62816 -102.7559,1.7e-4 -7e-4,10.6284 -15.9436,2.1e-4 0,17.71776 -10.6299,0 10e-5,102.75591 10.6298,0 z"
       id="rect4805-4"
       inkscape:connector-curvature="0"
       sodipodi:nodetypes="ccccccccccccccccccccc" />
    <path
       style="fill:none;fill-opacity:1;stroke:#ff0000;stroke-width:3.56811023;stroke-miterlimit:4.10060596;stroke-dasharray:none;stroke-opacity:1"
       d="m 745.05472,696.1616 28.3464,0 0,10.62992 35.4331,0 0,-10.62992 28.3465,0 -2e-4,-17.7164 -10.6299,0 2e-4,-102.75591 10.6299,0 -2e-4,-17.71653 -28.3465,0 0,-10.62993 -35.4331,0 0,10.62993 -28.3464,0 2e-4,17.71653 10.6299,0 -2e-4,102.75591 -10.6299,0 z"
       id="rect4805-8-0-2"
       inkscape:connector-curvature="0"
       sodipodi:nodetypes="ccccccccccccccccccccc" />
    <path
       style="fill:none;stroke:#ff0000;stroke-width:3.56811023;stroke-miterlimit:4.10060596;stroke-dasharray:none;stroke-opacity:1"
       d="m 300.03728,795.36739 248.03123,0 -9e-4,-53.14866 -35.6101,0 0,-10.98471 -35.07874,-2.4e-4 0,10.98472 -35.78741,0 0,-10.98472 -35.07874,0 0,10.98472 -35.7874,0 0,-10.98472 -35.07874,0 0,10.98472 -35.6101,2.3e-4 z m 46.0625,-28.34571 c 3.7e-4,-3.91406 3.17383,-7.08664 7.08789,-7.08593 3.9133,3.7e-4 7.08557,3.17263 7.08594,7.08593 -3.7e-4,3.91331 -3.17264,7.08557 -7.08594,7.08594 -3.91406,7.1e-4 -7.08752,-3.17187 -7.08789,-7.08594 z m 141.73243,0 c 3.7e-4,-3.91406 3.17383,-7.08664 7.0879,-7.08593 3.91329,3.9e-4 7.08553,3.17265 7.0859,7.08593 -3.7e-4,3.91329 -3.17261,7.08555 -7.0859,7.08594 -3.91407,7.1e-4 -7.08753,-3.17187 -7.0879,-7.08594 z"
       id="rect3377-8-5"
       inkscape:connector-curvature="0"
       sodipodi:nodetypes="ccccccccccccccccccccccccccc" />
    <path
       style="fill:none;stroke:#ff0000;stroke-width:3.56811023;stroke-miterlimit:4.10060596;stroke-dasharray:none;stroke-opacity:1"
       d="m 20.202941,982.24532 35.43272,4.7e-4 3e-4,-10.80709 35.43308,-4.7e-4 -3.1e-4,10.80709 35.433079,4.7e-4 3e-4,-10.80709 35.43307,4.9e-4 -3e-4,10.80709 35.43307,-4.9e-4 3e-4,-10.80709 35.43307,0 -3e-4,10.80709 35.43332,4.9e-4 2e-5,-46.41733 -10.80708,-4.8e-4 6e-5,-35.43307 10.80853,4.8e-4 8e-5,-35.43307 10.80563,-4.8e-4 -1.9e-4,-35.43307 -10.80606,4.8e-4 -2.3e-4,-248.0315 10.80639,-4.8e-4 10e-6,-35.43307 -10.80648,4.8e-4 -6.8e-4,-46.41735 -35.43332,-5e-4 -4.1e-4,10.8071 -35.43307,0 4.1e-4,-10.8071 -35.43307,5e-4 -4.1e-4,10.8071 -35.43307,-5e-4 4.1e-4,-10.8071 -35.433069,-5e-4 -4.1e-4,10.8071 -35.43307,5e-4 4e-4,-10.8071 -35.43271,-5e-4 6.8e-4,46.41739 -10.8078431,4.8e-4 2e-5,35.43307 10.8080331,-4.8e-4 2.3e-4,248.0315 -10.8081631,4.8e-4 -1.9e-4,35.43307 10.8072231,-4.8e-4 -9e-5,35.43307 10.80717,0 -6e-5,35.43307 -10.80604,0 z"
       id="rect3551-4"
       inkscape:connector-curvature="0"
       sodipodi:nodetypes="ccccccccccccccccccccccccccccccccccccccccccccccccccccc" />
    <path
       style="fill:none;stroke:#ff0000;stroke-width:3.56811023;stroke-miterlimit:4.10060596;stroke-dasharray:none;stroke-opacity:1"
       d="m 300.41124,716.16485 248.03123,0 -9e-4,-53.14865 -35.6101,0 0,-10.98472 -35.07874,-2.3e-4 0,10.98472 -35.78741,0 0,-10.98472 -35.07874,0 0,10.98472 -35.7874,0 0,-10.98472 -35.07874,0 0,10.98472 -35.6101,2.3e-4 z m 46.0625,-28.34571 c 3.7e-4,-3.91406 3.17383,-7.08664 7.08789,-7.08593 3.9133,3.7e-4 7.08557,3.17263 7.08594,7.08593 -3.7e-4,3.91331 -3.17264,7.08557 -7.08594,7.08594 -3.91406,7.1e-4 -7.08752,-3.17187 -7.08789,-7.08594 z m 141.73243,0 c 3.7e-4,-3.91406 3.17383,-7.08664 7.0879,-7.08593 3.91329,3.9e-4 7.08553,3.17265 7.0859,7.08593 -3.7e-4,3.91329 -3.17261,7.08555 -7.0859,7.08594 -3.91407,7.1e-4 -7.08753,-3.17187 -7.0879,-7.08594 z"
       id="rect3377-8-5-6"
       inkscape:connector-curvature="0"
       sodipodi:nodetypes="ccccccccccccccccccccccccccc" />
    <path
       style="fill:none;fill-rule:evenodd;stroke:#ff0000;stroke-width:3.56811023;stroke-linecap:butt;stroke-linejoin:miter;stroke-miterlimit:4.10060596;stroke-dasharray:none;stroke-opacity:1"
       d="m 528.82879,565.73541 2.5e-4,35.43367 10.63045,-10e-4 -7.9e-4,35.43368 -10.98319,0 -70.51234,-70.86735 0,-10.63 35.43412,0 0,10.63 35.43255,10e-4"
       id="path6495-9"
       inkscape:connector-curvature="0"
       sodipodi:nodetypes="cccccccccc" />
    <path
       style="fill:none;fill-rule:evenodd;stroke:#ff0000;stroke-width:3.56811023;stroke-linecap:butt;stroke-linejoin:miter;stroke-miterlimit:4.10060596;stroke-dasharray:none;stroke-opacity:1"
       d="m 441.09736,566.25069 2.6e-4,35.43367 10.63045,-10e-4 -8e-4,35.43368 -10.98319,0 -70.51234,-70.86735 0,-10.63 35.43413,0 0,10.63 35.43254,10e-4"
       id="path6495-5"
       inkscape:connector-curvature="0"
       sodipodi:nodetypes="cccccccccc" />
    <path
       style="fill:none;fill-rule:evenodd;stroke:#ff0000;stroke-width:3.56811023;stroke-linecap:butt;stroke-linejoin:miter;stroke-miterlimit:4.10060596;stroke-dasharray:none;stroke-opacity:1"
       d="m 361.61341,567.65465 2.6e-4,35.43367 10.63045,-10e-4 -8e-4,35.43368 -10.98319,0 -70.51235,-70.86735 0,-10.63 35.43413,0 0,10.63 35.43255,10e-4"
       id="path6495-3"
       inkscape:connector-curvature="0"
       sodipodi:nodetypes="cccccccccc" />
    <path
       style="fill:none;stroke:#ff0000;stroke-width:3.56811023;stroke-miterlimit:4.10060596;stroke-dasharray:none;stroke-opacity:1"
       d="m 451.18197,505.56854 35.43294,0.003 0,-17.71654 177.16536,0 0,17.71654 35.43294,-0.003 -9e-4,-53.14864 -35.6101,0 9e-4,10.6318 -35.07874,-2e-4 -9e-4,-10.6298 -35.78741,0 9e-4,10.6298 -35.07874,0 0,-10.6298 -35.7883,0 9e-4,10.6298 -35.07875,0 0,-10.6298 -35.611,0 z m 10.62948,-28.34374 c 3.7e-4,-3.9141 3.17384,-7.0867 7.0879,-7.0859 3.9133,3e-4 7.08557,3.1726 7.08594,7.0859 -3.7e-4,3.9133 -3.17264,7.0855 -7.08594,7.0859 -3.91406,7e-4 -7.08753,-3.1719 -7.0879,-7.0859 z m 212.59845,0 c 3.7e-4,-3.9141 3.17383,-7.0867 7.0879,-7.0859 3.91329,3e-4 7.08553,3.1726 7.0859,7.0859 -3.7e-4,3.9133 -3.17261,7.0855 -7.0859,7.0859 -3.91407,7e-4 -7.08753,-3.1719 -7.0879,-7.0859 z"
       id="rect3377-8-5-7"
       inkscape:connector-curvature="0"
       sodipodi:nodetypes="ccccccccccccccccccccccccccccccc" />
    <path
       style="fill:none;stroke:#ff0000;stroke-width:3.56811023;stroke-miterlimit:4.10060596;stroke-dasharray:none;stroke-opacity:1"
       d="m 302.44273,874.98126 35.43295,0.003 0,-17.71654 177.16535,0 0,17.71654 35.43294,-0.003 -9e-4,-53.14866 -35.61009,0 8.9e-4,10.63178 -35.07874,-2.3e-4 -8.9e-4,-10.6298 -35.78742,0 9e-4,10.6298 -35.07874,0 0,-10.6298 -35.78829,0 8.9e-4,10.6298 -35.07874,0 0,-10.6298 -35.61101,-0.002 z m 10.62949,-28.34377 c 3.7e-4,-3.91406 3.17384,-7.08664 7.0879,-7.08593 3.9133,3.7e-4 7.08557,3.17263 7.08594,7.08593 -3.7e-4,3.91331 -3.17264,7.08557 -7.08594,7.08594 -3.91406,7.1e-4 -7.08753,-3.17187 -7.0879,-7.08594 z m 212.59845,-0.004 c 3.7e-4,-3.91406 3.17383,-7.08664 7.0879,-7.08593 3.91329,3.9e-4 7.08553,3.17265 7.0859,7.08593 -3.7e-4,3.91329 -3.17261,7.08555 -7.0859,7.08594 -3.91407,7.1e-4 -7.08753,-3.17187 -7.0879,-7.08594 z"
       id="rect3377-8-5-7-2"
       inkscape:connector-curvature="0"
       sodipodi:nodetypes="ccccccccccccccccccccccccccccccc" />
    <path
       inkscape:connector-curvature="0"
       style="fill:none;stroke:#ff0000;stroke-width:3.56811023;stroke-miterlimit:4.10060596;stroke-dasharray:none;stroke-opacity:1"
       d="m 565.88878,612.86185 3e-4,283.90792 60.2362,0 -10e-5,-35.2554 10.9845,-10e-4 0,-35.7874 -10.9845,0.001 0,-35.07874 10.9845,-10e-4 0,-35.78739 -10.9845,0.001 0,-35.07875 10.9845,-0.001 0,-35.7874 -10.9845,10e-4 0,-35.07874 10.9845,-10e-4 -2e-4,-35.60924 -71.2207,-10e-4 z"
       id="rect3377-82-4-4-1"
       sodipodi:nodetypes="cccccccccccccccccccc" />
    <path
       style="fill:none;fill-opacity:1;stroke:#ff0000;stroke-width:3.56811023;stroke-miterlimit:4.10060596;stroke-dasharray:none;stroke-opacity:1"
       d="m 736.4181,884.21939 28.3464,0 0,10.62992 35.4331,0 0,-10.62992 28.3465,0 -2e-4,-17.7164 -10.6299,0 2e-4,-102.75585 10.6299,0 -2e-4,-17.7166 -28.3465,0 0,-10.6299 -35.4331,0 0,10.6299 -28.3464,0 2e-4,17.7166 10.6299,0 -2e-4,102.75585 -10.6299,0 z"
       id="rect4805-8-0-2-3"
       inkscape:connector-curvature="0"
       sodipodi:nodetypes="ccccccccccccccccccccc" />
    <path
       style="fill:none;fill-opacity:1;stroke:#ff0000;stroke-width:3.56811023;stroke-miterlimit:4.10060596;stroke-dasharray:none;stroke-opacity:1"
       d="m 169.30872,1320.2328 0,-77.9528 70.86614,0 0,77.9528 z"
       id="rect4804"
       inkscape:connector-curvature="0"
       sodipodi:nodetypes="ccccc" />
  </g>
</svg>
