<?xml version="1.0" encoding="UTF-8" standalone="no"?>
<!-- Created with Inkscape (http://www.inkscape.org/) -->

<svg
   xmlns:dc="http://purl.org/dc/elements/1.1/"
   xmlns:cc="http://creativecommons.org/ns#"
   xmlns:rdf="http://www.w3.org/1999/02/22-rdf-syntax-ns#"
   xmlns:svg="http://www.w3.org/2000/svg"
   xmlns="http://www.w3.org/2000/svg"
   xmlns:sodipodi="http://sodipodi.sourceforge.net/DTD/sodipodi-0.dtd"
   xmlns:inkscape="http://www.inkscape.org/namespaces/inkscape"
   width="420mm"
   height="297mm"
   viewBox="0 0 1488.189 1052.3622"
   id="svg2"
   version="1.1"
   inkscape:version="0.91 r13725"
   sodipodi:docname="robocup base.svg">
  <defs
     id="defs4" />
  <sodipodi:namedview
     id="base"
     pagecolor="#ffffff"
     bordercolor="#666666"
     borderopacity="1.0"
     inkscape:pageopacity="0.0"
     inkscape:pageshadow="2"
     inkscape:zoom="0.24748737"
     inkscape:cx="24.123169"
     inkscape:cy="101.58616"
     inkscape:document-units="px"
     inkscape:current-layer="layer1"
     showgrid="false"
     inkscape:window-width="1366"
     inkscape:window-height="705"
     inkscape:window-x="-8"
     inkscape:window-y="-8"
     inkscape:window-maximized="1"
     height="419mm" />
  <metadata
     id="metadata7">
    <rdf:RDF>
      <cc:Work
         rdf:about="">
        <dc:format>image/svg+xml</dc:format>
        <dc:type
           rdf:resource="http://purl.org/dc/dcmitype/StillImage" />
        <dc:title></dc:title>
      </cc:Work>
    </rdf:RDF>
  </metadata>
  <g
     inkscape:label="Layer 1"
     inkscape:groupmode="layer"
     id="layer1"
     transform="translate(0,-1.6535432e-6)">
    <path
       style="fill:none;fill-rule:evenodd;stroke:#ff0000;stroke-width:1.02499998;stroke-linecap:butt;stroke-linejoin:miter;stroke-miterlimit:4;stroke-dasharray:none;stroke-opacity:1"
       d="m 35.433066,95.669279 0,70.866141 10.629926,1e-5 0,70.86615 -10.629926,-1e-5 0,70.86614 10.629926,10e-6 0,70.86614 -10.629926,-1e-5 0,70.86614 10.629926,10e-6 0,70.86614 -10.629926,-10e-6 0,70.86615 10.629926,1e-5 0,70.86614 -10.629926,-10e-6 0,70.86614 10.629926,10e-6 0,70.86614 -10.629926,-10e-6 0,70.86614 70.866144,0 0,-10.62991 70.86614,0 0,10.62991 70.86615,0 0,-10.62991 70.86614,0 0,10.62991 70.86614,0 0,-10.62991 70.86614,0 0,10.62991 141.73229,0 0,-70.86614 -10.62993,10e-6 0,-70.86614 10.62993,-10e-6 0,-70.86614 -10.62993,10e-6 0,-70.86614 10.62993,-1e-5 0,-70.86615 -10.62993,10e-6 0,-70.86614 10.62993,-10e-6 0,-70.86614 -10.62993,1e-5 0,-70.86614 10.62993,-10e-6 0,-70.86614 -10.62993,1e-5 0,-70.86614 10.62993,-2e-5 0,-70.866141 -70.86615,-70.866129 -425.19685,0 z"
       id="path4138"
       inkscape:connector-curvature="0"
       sodipodi:nodetypes="ccccccccccccccccccccccccccccccccccccccccccccccccccccccccccc" />
    <path
       style="fill:none;fill-rule:evenodd;stroke:#ff0000;stroke-width:1.02499998;stroke-linecap:butt;stroke-linejoin:miter;stroke-miterlimit:4;stroke-dasharray:none;stroke-opacity:1"
       d="m 46.062992,910.62992 0,106.29918 60.236218,0 0,-10.6299 70.86614,0 0,10.6299 70.86615,0 0,-10.6299 70.86614,0 0,10.6299 70.86614,0 0,-10.6299 70.86614,0 0,10.6299 131.10236,0 0,-106.29918 -131.10236,0 0,-10.62992 -70.86614,0 0,10.62992 -70.86614,0 -1e-5,-10.62992 -70.86614,0 0,10.62992 -70.86614,0 0,-10.62992 -70.86614,0 0,10.62992 z"
       id="path4140"
       inkscape:connector-curvature="0"
       sodipodi:nodetypes="ccccccccccccccccccccccccccccc" />
    <path
       style="fill:none;fill-rule:evenodd;stroke:#ff0000;stroke-width:1.02499998;stroke-linecap:butt;stroke-linejoin:miter;stroke-miterlimit:4;stroke-dasharray:none;stroke-opacity:1"
       d="m 637.79528,875.19685 106.29921,0 0,-70.86615 -10.62992,0 0,-70.86614 10.62992,0 0,-70.86614 -10.62992,0 0,-70.86615 10.62992,0 0,-70.86614 -10.62992,0 0,-70.86614 10.62992,0 0,-70.86614 -10.62992,0 0,-70.86614 10.62992,0 0,-70.86615 -10.62992,0 0,-70.86614 10.62992,0 0,-70.866129 -106.29921,0 0,70.866139 -10.62993,0 0,70.86614 10.62993,0 0,70.86615 -10.62993,0 0,70.86614 10.62993,0 0,70.86614 -10.62993,0 0,70.86614 10.62993,0 0,70.86614 -10.62993,0 0,70.86615 10.62993,0 0,70.86614 -10.62993,0 0,70.86614 10.62993,0 z"
       id="path4142"
       inkscape:connector-curvature="0"
       sodipodi:nodetypes="ccccccccccccccccccccccccccccccccccccccccccccc" />
    <path
       style="fill:none;fill-rule:evenodd;stroke:#ff0000;stroke-width:1.02499998;stroke-linecap:butt;stroke-linejoin:miter;stroke-miterlimit:4;stroke-dasharray:none;stroke-opacity:1"
       d="m 779.51449,875.18238 106.29921,0 0,-70.86615 -10.62992,0 0,-70.86614 10.62992,0 0,-70.86614 -10.62992,0 0,-70.86615 10.62992,0 0,-70.86614 -10.62992,0 0,-70.86614 10.62992,0 0,-70.86614 -10.62992,0 0,-70.86614 10.62992,0 0,-70.86615 -10.62992,0 0,-70.86614 10.62992,0 0,-70.866133 -106.29921,0 0,70.866143 -10.62993,0 0,70.86614 10.62993,0 0,70.86615 -10.62993,0 0,70.86614 10.62993,0 0,70.86614 -10.62993,0 0,70.86614 10.62993,0 0,70.86614 -10.62993,0 0,70.86615 10.62993,0 0,70.86614 -10.62993,0 0,70.86614 10.62993,0 z"
       id="path4142-6"
       inkscape:connector-curvature="0"
       sodipodi:nodetypes="ccccccccccccccccccccccccccccccccccccccccccccc" />
  </g>
</svg>
