<?xml version="1.0" encoding="UTF-8" standalone="no"?>
<!-- Created with Inkscape (http://www.inkscape.org/) -->

<svg
   xmlns:dc="http://purl.org/dc/elements/1.1/"
   xmlns:cc="http://creativecommons.org/ns#"
   xmlns:rdf="http://www.w3.org/1999/02/22-rdf-syntax-ns#"
   xmlns:svg="http://www.w3.org/2000/svg"
   xmlns="http://www.w3.org/2000/svg"
   xmlns:sodipodi="http://sodipodi.sourceforge.net/DTD/sodipodi-0.dtd"
   xmlns:inkscape="http://www.inkscape.org/namespaces/inkscape"
   width="297mm"
   height="210mm"
   viewBox="0 0 1052.3622 744.09448"
   id="svg3336"
   version="1.1"
   inkscape:version="0.91 r13725"
   sodipodi:docname="robot power button.svg">
  <defs
     id="defs3338">
    <inkscape:path-effect
       effect="spiro"
       id="path-effect3679"
       is_visible="true" />
    <inkscape:path-effect
       effect="spiro"
       id="path-effect3675"
       is_visible="true" />
  </defs>
  <sodipodi:namedview
     id="base"
     pagecolor="#ffffff"
     bordercolor="#666666"
     borderopacity="1.0"
     inkscape:pageopacity="0.0"
     inkscape:pageshadow="2"
     inkscape:zoom="2.8284271"
     inkscape:cx="89.181203"
     inkscape:cy="607.02307"
     inkscape:document-units="mm"
     inkscape:current-layer="layer1"
     showgrid="true"
     inkscape:window-width="1366"
     inkscape:window-height="705"
     inkscape:window-x="-8"
     inkscape:window-y="-8"
     inkscape:window-maximized="1"
     showguides="false">
    <inkscape:grid
       type="xygrid"
       id="grid3344"
       units="mm"
       spacingx="3.5433071"
       spacingy="3.5433072"
       dotted="false" />
  </sodipodi:namedview>
  <metadata
     id="metadata3341">
    <rdf:RDF>
      <cc:Work
         rdf:about="">
        <dc:format>image/svg+xml</dc:format>
        <dc:type
           rdf:resource="http://purl.org/dc/dcmitype/StillImage" />
        <dc:title />
      </cc:Work>
    </rdf:RDF>
  </metadata>
  <g
     inkscape:label="Layer 1"
     inkscape:groupmode="layer"
     id="layer1"
     transform="translate(0,-308.26772)">
    <path
       style="fill:none;stroke:#ff0000;stroke-width:0.025;stroke-miterlimit:4;stroke-dasharray:none;stroke-opacity:1"
       d="m 19.133646,315.35458 0,35.875 10.62891,0 0,34.54883 -10.62891,0 0,36.31835 10.62891,0 0,34.54688 -10.62891,0 0,36.31836 10.63014,0 0,-6.65375 37.5874,0 0,30.49725 -37.58863,0 0,10.70533 -10.62891,0 0,35.875 109.841804,0 0,-248.03125 z"
       id="rect3370"
       inkscape:connector-curvature="0"
       sodipodi:nodetypes="ccccccccccccccccccccc" />
    <circle
       style="fill:none;fill-opacity:1;stroke:#ff0000;stroke-width:0.025;stroke-miterlimit:4;stroke-dasharray:none;stroke-opacity:1"
       id="path4160"
       cx="86.279526"
       cy="464.35037"
       r="19.953058" />
    <path
       style="fill:#000000"
       d="m 36.937132,463.96139 c 0.06917,-1.50658 0.476734,-2.9542 1.198508,-4.25692 0.577582,-1.04247 1.305781,-1.92693 2.248545,-2.73103 0.245973,-0.20979 0.607292,-0.47824 0.913022,-0.67834 1.322286,-0.86545 2.777849,-1.37974 4.35065,-1.5372 0.351158,-0.0352 0.537123,-0.0437 0.952148,-0.0436 0.618715,8e-5 1.064448,0.037 1.641979,0.13599 1.507553,0.2584 2.951489,0.88041 4.164487,1.79396 0.331374,0.24957 0.655814,0.52416 0.785026,0.6644 0.203118,0.22047 0.340895,0.49072 0.406972,0.79828 0.01898,0.0883 0.02209,0.13228 0.02245,0.31738 3.68e-4,0.18645 -0.0025,0.22863 -0.02155,0.31917 -0.07161,0.33997 -0.227258,0.62806 -0.465965,0.86247 -0.230236,0.22609 -0.512577,0.37508 -0.844926,0.44585 -0.08702,0.0185 -0.133576,0.0219 -0.307618,0.0223 -0.174573,3.9e-4 -0.221056,-0.003 -0.3125,-0.0213 -0.326849,-0.0662 -0.571347,-0.19327 -0.858501,-0.44632 -0.70969,-0.6254 -1.563151,-1.09007 -2.47646,-1.34831 -0.375898,-0.10628 -0.764587,-0.17747 -1.18164,-0.21642 -0.224274,-0.0209 -0.819766,-0.024 -1.040039,-0.005 -0.865148,0.0734 -1.619813,0.2849 -2.377993,0.66639 -1.081948,0.54441 -2.004,1.40903 -2.618927,2.45581 -0.101462,0.17271 -0.108814,0.18631 -0.205955,0.38086 -0.372032,0.74507 -0.580776,1.49542 -0.653384,2.34863 -0.0076,0.0891 -0.01288,0.29404 -0.01288,0.49804 0,0.35302 0.0092,0.51727 0.04476,0.80079 0.175532,1.39882 0.813074,2.69829 1.815774,3.70099 0.69058,0.69058 1.522135,1.21006 2.441227,1.52504 0.489121,0.16764 1.015569,0.2761 1.567383,0.32292 0.220273,0.0187 0.815765,0.0157 1.040039,-0.005 0.641059,-0.0599 1.213317,-0.19502 1.789056,-0.42255 0.697588,-0.27569 1.297508,-0.64395 1.894,-1.16264 0.222536,-0.1935 0.400712,-0.29856 0.635585,-0.37475 0.179312,-0.0582 0.283229,-0.0729 0.51046,-0.0724 0.226214,5e-4 0.312123,0.0132 0.507813,0.075 0.12752,0.0402 0.337696,0.1467 0.453307,0.22959 0.334648,0.23993 0.568769,0.60535 0.657389,1.02607 0.01907,0.0905 0.02192,0.13272 0.02155,0.31917 -3.65e-4,0.1851 -0.0035,0.22904 -0.02245,0.31738 -0.06608,0.30756 -0.203854,0.57781 -0.406972,0.79828 -0.129107,0.14013 -0.455974,0.41681 -0.781294,0.66134 -1.19174,0.89576 -2.593503,1.51036 -4.052385,1.77676 -1.367164,0.24965 -2.756163,0.20706 -4.093015,-0.12549 -1.096804,-0.27284 -2.105592,-0.72128 -3.057415,-1.35913 -0.270577,-0.18132 -0.608027,-0.43478 -0.823203,-0.6183 -0.905465,-0.77229 -1.6224,-1.63208 -2.188199,-2.62421 -0.73071,-1.28131 -1.150711,-2.68931 -1.249253,-4.18796 -0.01433,-0.21791 -0.01981,-0.80307 -0.0096,-1.02539 z m 8.018167,0.30762 c 0.01504,-0.21083 0.07039,-0.4087 0.170746,-0.61035 0.229248,-0.46065 0.644426,-0.77724 1.16146,-0.88568 l 0.107422,-0.0225 5.610351,0 5.610352,0 0.107422,0.0218 c 0.159895,0.0325 0.277382,0.0733 0.429687,0.14917 0.17457,0.087 0.293994,0.17267 0.42927,0.30795 0.133466,0.13346 0.220067,0.25351 0.306139,0.42438 0.117111,0.23249 0.165154,0.42216 0.17439,0.68848 0.0064,0.18524 -0.0079,0.32011 -0.0508,0.47969 -0.144794,0.53814 -0.538515,0.9589 -1.067522,1.14085 -0.135296,0.0465 -0.26362,0.0716 -0.427273,0.0834 -0.186695,0.0135 -10.826878,0.0135 -11.013574,0 -0.314266,-0.0227 -0.567716,-0.10865 -0.824887,-0.27988 -0.489328,-0.32581 -0.765898,-0.89841 -0.723188,-1.49727 z"
       id="path9025"
       inkscape:connector-curvature="0" />
    <path
       style="fill:#000000"
       d="m 45.682418,419.68453 c -2.101895,-0.33104 -3.494382,-0.93789 -5.124442,-2.23324 -1.413419,-1.12319 -2.73295,-3.17261 -3.216765,-4.99609 -0.303567,-1.14413 -0.375073,-3.21334 -0.149517,-4.32661 0.787387,-3.88625 3.552644,-6.79755 7.365495,-7.75447 1.230366,-0.30879 3.389853,-0.3094 4.571324,-0.001 2.781283,0.7253 4.978762,2.41481 6.355276,4.88619 0.328779,0.59029 0.849456,2.00508 0.958888,2.60552 l 0.06784,0.37221 1.360296,0.001 c 1.520193,0.002 1.806958,0.0469 1.806958,0.28578 0,0.19411 -4.383789,5.61703 -4.66035,5.76504 -0.103896,0.0556 -0.254777,0.0758 -0.335291,0.0449 -0.126291,-0.0485 -3.85419,-4.55421 -4.537972,-5.48484 -0.23823,-0.32424 -0.239216,-0.33345 -0.05046,-0.47148 0.145123,-0.10612 0.54484,-0.14078 1.623549,-0.14078 l 1.431028,0 -0.06645,-0.27296 c -0.03655,-0.15012 -0.23007,-0.60795 -0.430044,-1.01739 -0.535851,-1.09712 -1.763021,-2.31018 -2.89979,-2.86643 -1.118426,-0.54727 -2.062674,-0.74158 -3.275507,-0.67401 -1.698678,0.0946 -3.048552,0.7101 -4.28006,1.95148 -1.256267,1.26635 -1.873925,2.77156 -1.873925,4.5667 0,1.79513 0.617658,3.30035 1.873925,4.56669 1.231508,1.24139 2.581382,1.85686 4.28006,1.95149 1.571833,0.0876 3.097572,-0.37399 4.30869,-1.30341 0.482489,-0.37027 0.488813,-0.37195 0.645176,-0.17179 0.08685,0.11118 0.526406,0.66964 0.976788,1.24101 0.450382,0.57138 0.817496,1.07737 0.815808,1.12442 -0.01094,0.30487 -2.088437,1.50307 -3.298246,1.90226 -1.327942,0.43816 -3.11371,0.62748 -4.242279,0.44973 z"
       id="path9023"
       inkscape:connector-curvature="0" />
    <path
       style="fill:#000000"
       d="m 40.538725,371.13487 c -0.74445,-0.26539 -1.481884,-0.93686 -1.771004,-1.61257 -0.17831,-0.41674 -0.21654,-2.90999 -0.21654,-14.12061 0,-11.89602 0.0305,-13.68759 0.24191,-14.19349 0.5689,-1.36156 1.382744,-1.77006 3.526458,-1.77006 l 1.57903,0 0,-1.0223 0,-1.02229 3.460089,0 3.460085,0 0,1.02229 0,1.0223 1.657675,0 c 2.229605,0 3.029645,0.39281 3.605095,1.77006 0.21146,0.50608 0.24148,2.28773 0.23846,14.14912 -0.003,12.82551 -0.0193,13.60502 -0.29217,14.20575 -0.35234,0.77567 -1.08944,1.42069 -1.87181,1.63798 -0.944475,0.2623 -12.858248,0.2044 -13.617278,-0.0662 z m 13.513468,-2.03742 c 0.29748,-0.21749 0.30636,-0.56514 0.3472,-13.57991 0.0419,-13.33954 0.0415,-13.35723 -0.28665,-13.77439 l -0.328565,-0.41769 -6.34687,0 -6.346873,0 -0.32597,0.4144 c -0.32391,0.41178 -0.32597,0.49807 -0.32597,13.64805 0,11.72294 0.028,13.27355 0.24484,13.58319 l 0.24483,0.34955 6.409363,0 c 5.28675,0 6.46284,-0.0391 6.714665,-0.2232 z m -9.98162,-2.26574 c -0.113874,-0.21276 -0.0918,-0.38654 0.0803,-0.63227 0.22868,-0.32649 0.3451,-0.33887 3.186625,-0.33887 3.203175,0 3.557585,0.0815 3.456845,0.7952 l -0.0542,0.38438 -3.256255,0.0425 c -3.041325,0.0397 -3.266625,0.0231 -3.413285,-0.25092 z m 2.906145,-17.26048 c -0.18032,-0.18032 -0.24715,-0.56306 -0.24715,-1.41548 l 0,-1.16834 -1.168345,0 c -0.85242,0 -1.23517,-0.0668 -1.41549,-0.24715 -0.292394,-0.29239 -0.294904,-0.31342 -0.0843,-0.70685 0.14005,-0.26168 0.33797,-0.30421 1.41549,-0.30421 l 1.252685,0 0,-1.11128 c 0,-1.30269 0.1739,-1.7197 0.71717,-1.7197 0.50783,0 0.69831,0.49442 0.69831,1.81256 l 0,1.00569 1.297535,0.0457 c 1.2193,0.0429 1.30063,0.0675 1.34893,0.40821 0.0913,0.64401 -0.22345,0.81705 -1.48614,0.81705 l -1.160325,0 0,1.06594 c 0,1.49559 -0.51784,2.16837 -1.16833,1.51788 z"
       id="path9021"
       inkscape:connector-curvature="0" />
    <circle
       style="fill:none;fill-opacity:1;stroke:#ff0000;stroke-width:0.025;stroke-miterlimit:4;stroke-dasharray:none;stroke-opacity:1"
       id="path4160-1"
       cx="86.278549"
       cy="409.43011"
       r="19.953058" />
    <circle
       style="fill:none;fill-opacity:1;stroke:#ff0000;stroke-width:0.025;stroke-miterlimit:4;stroke-dasharray:none;stroke-opacity:1"
       id="path4160-4"
       cx="86.278549"
       cy="354.50885"
       r="19.953058" />
  </g>
</svg>
